HIERARCHY
ROOT joint_Root
{
  OFFSET 0 0 0
  CHANNELS 6 Xposition Yposition Zposition Zrotation Xrotation Yrotation
  JOINT Hips
  {
    OFFSET 0.847027 93.984 -452.225
    CHANNELS 6 Xposition Yposition Zposition Zrotation Xrotation Yrotation
    JOINT Spine
    {
      OFFSET 15.7357 0 0
      CHANNELS 6 Xposition Yposition Zposition Zrotation Xrotation Yrotation
      JOINT Chest
      {
        OFFSET 8.98455 -0.406207 0
        CHANNELS 6 Xposition Yposition Zposition Zrotation Xrotation Yrotation
        JOINT Neck
        {
          OFFSET 16.3773 0 0
          CHANNELS 6 Xposition Yposition Zposition Zrotation Xrotation Yrotation
          JOINT Head
          {
            OFFSET 6.45672 0 0
            CHANNELS 6 Xposition Yposition Zposition Zrotation Xrotation Yrotation
            End Site
            {
              OFFSET 0 0 0
            }
          }
        }
        JOINT Shoulder_L
        {
          OFFSET 12.9942 -0.242716 4.98039
          CHANNELS 6 Xposition Yposition Zposition Zrotation Xrotation Yrotation
          JOINT UpperArm_L
          {
            OFFSET 5.34809 0 0
            CHANNELS 6 Xposition Yposition Zposition Zrotation Xrotation Yrotation
            JOINT LowerArm_L
            {
              OFFSET 24.3286 1.87007e-05 0
              CHANNELS 6 Xposition Yposition Zposition Zrotation Xrotation Yrotation
              JOINT Hand_L
              {
                OFFSET 22.2916 0 0
                CHANNELS 6 Xposition Yposition Zposition Zrotation Xrotation Yrotation
                End Site
                {
                  OFFSET 0 0 0
                }
              }
            }
          }
        }
        JOINT Shoulder_R
        {
          OFFSET 12.9945 -0.242716 -4.98039
          CHANNELS 6 Xposition Yposition Zposition Zrotation Xrotation Yrotation
          JOINT UpperArm_R
          {
            OFFSET -5.34813 0 0
            CHANNELS 6 Xposition Yposition Zposition Zrotation Xrotation Yrotation
            JOINT LowerArm_R
            {
              OFFSET -24.3289 0.000322201 0
              CHANNELS 6 Xposition Yposition Zposition Zrotation Xrotation Yrotation
              JOINT Hand_R
              {
                OFFSET -22.2915 -0.000108084 0
                CHANNELS 6 Xposition Yposition Zposition Zrotation Xrotation Yrotation
                End Site
                {
                  OFFSET 0 0 0
                }
              }
            }
          }
        }
      }
    }
    JOINT UpperLeg_L
    {
      OFFSET -2.19248 -6.46944 0
      CHANNELS 6 Xposition Yposition Zposition Zrotation Xrotation Yrotation
      JOINT LowerLeg_L
      {
        OFFSET 39.0811 0 -1.23785e-05
        CHANNELS 6 Xposition Yposition Zposition Zrotation Xrotation Yrotation
        JOINT Foot_L
        {
          OFFSET 40.9854 0 -1.26872e-05
          CHANNELS 6 Xposition Yposition Zposition Zrotation Xrotation Yrotation
          JOINT Toes_L
          {
            OFFSET 11.7543 0 0
            CHANNELS 6 Xposition Yposition Zposition Zrotation Xrotation Yrotation
            End Site
            {
              OFFSET 0 0 0
            }
          }
        }
      }
    }
    JOINT UpperLeg_R
    {
      OFFSET -2.19251 6.46944 0
      CHANNELS 6 Xposition Yposition Zposition Zrotation Xrotation Yrotation
      JOINT LowerLeg_R
      {
        OFFSET -39.0811 -0.00228153 -0.0401928
        CHANNELS 6 Xposition Yposition Zposition Zrotation Xrotation Yrotation
        JOINT Foot_R
        {
          OFFSET -40.9854 0 0
          CHANNELS 6 Xposition Yposition Zposition Zrotation Xrotation Yrotation
          JOINT Toes_R
          {
            OFFSET -11.7543 0 0
            CHANNELS 6 Xposition Yposition Zposition Zrotation Xrotation Yrotation
            End Site
            {
              OFFSET 0 0 0
            }
          }
        }
      }
    }
  }
}
MOTION
Frames:	8
Frame Time:	0.0333333
0 0 0 0 0 -0 -18.1796 93.4829 -6.77459 95.8208 18.076 -18.639 15.7357 5.1072e-06 -5.51765e-07 90.9231 76.5072 -89.575 8.98455 -0.406207 -4.3199e-07 19.2114 0.559735 2.60864 16.3773 -1.3905e-06 -6.99897e-07 7.15475 -10.23 5.02724 6.45672 -1.25837e-06 -1.02172e-07 -38.6207 -14.922 -1.63639 12.9942 -0.242716 4.98039 -91.1426 4.98394 -92.0708 5.34809 -7.22636e-06 -6.2814e-07 -56.3631 19.4786 -26.8671 24.3286 1.87007e-05 4.90208e-06 -2.15804 -2.85871 -37.0783 22.2916 -9.88446e-07 4.63217e-06 21.3395 5.58557 -10.5144 12.9945 -0.242716 -4.98039 89.4142 5.14692 -98.4978 -5.34813 -1.25947e-06 -3.79883e-06 -67.8893 -30.3961 -73.0737 -24.3289 0.000322201 -8.65921e-06 -36.19 -21.2949 -63.5985 -22.2915 -0.000108084 -4.47941e-06 19.5322 4.98869 7.55887 -2.19248 -6.46944 -1.22534e-07 -172.461 -4.40866 -37.589 39.0811 -6.73843e-06 -1.23785e-05 0.174413 -0.481846 21.6563 40.9854 -6.48686e-06 -1.26872e-05 -13.3305 11.7829 -23.1766 11.7543 -2.30145e-07 3.05095e-06 0.537937 -1.31429 -38.0361 -2.19251 6.46944 -1.45247e-06 -176.841 14.7277 149.676 -39.0811 -0.00228153 -0.0401928 0.0180405 -0.0769334 11.623 -40.9854 7.72618e-06 5.99936e-06 4.89451 -3.0775 -50.1635 -11.7543 -5.6619e-06 -5.58687e-06 -0.0772337 0.0489908 -16.5718 
0 0 0 0 0 -0 -18.3142 93.4815 -6.68983 95.742 18.2597 -18.5834 15.7357 5.1072e-06 -5.51765e-07 90.7853 76.4657 -89.5159 8.98455 -0.406207 -4.3199e-07 19.2963 0.490327 2.46213 16.3773 -1.3905e-06 -6.99897e-07 7.38591 -10.4059 4.97633 6.45672 -1.25837e-06 -1.02172e-07 -38.5823 -15.1207 -1.81311 12.9942 -0.242716 4.98039 -91.1453 5.00661 -92.0979 5.34809 -7.22636e-06 -6.2814e-07 -56.2448 19.3373 -27.0298 24.3286 1.87007e-05 4.90208e-06 -2.1196 -2.81862 -36.9621 22.2916 -9.88446e-07 4.63217e-06 21.3453 5.5841 -10.4342 12.9945 -0.242716 -4.98039 89.4089 5.07897 -98.3524 -5.34813 -1.25947e-06 -3.79883e-06 -67.9342 -30.3754 -73.4234 -24.3289 0.000322201 -8.65921e-06 -36.1465 -21.1693 -63.6927 -22.2915 -0.000108084 -4.47941e-06 19.4509 4.99187 7.49193 -2.19248 -6.46944 -1.22533e-07 -172.281 -4.37412 -37.5385 39.0811 -6.73843e-06 -1.23785e-05 0.173196 -0.481099 21.5851 40.9854 -6.48686e-06 -1.26872e-05 -13.3623 11.8636 -23.0553 11.7543 -2.30145e-07 3.05095e-06 0.538384 -1.31653 -38.0704 -2.19251 6.46944 -1.45247e-06 -176.651 14.7822 149.802 -39.0811 -0.00228153 -0.0401928 0.0168316 -0.0730388 11.5299 -40.9854 7.72618e-06 5.99936e-06 4.98596 -3.16113 -50.1838 -11.7543 -5.6619e-06 -5.58687e-06 -0.0800061 0.0506062 -16.5717 
0 0 0 0 0 -0 -18.4533 93.4682 -6.60834 95.6197 18.4742 -18.4752 15.7357 5.1072e-06 -5.51765e-07 90.5997 76.4148 -89.3823 8.98455 -0.406207 -4.3199e-07 19.3999 0.401377 2.37293 16.3773 -1.3905e-06 -6.99897e-07 7.65516 -10.5117 5.03828 6.45672 -1.25837e-06 -1.02172e-07 -38.56 -15.2269 -2.15753 12.9942 -0.242716 4.98039 -91.1679 5.09468 -92.0708 5.34809 -7.22636e-06 -6.2814e-07 -56.1313 19.2089 -27.1504 24.3286 1.87007e-05 4.90208e-06 -2.21131 -2.92085 -37.1571 22.2916 -9.88446e-07 4.63217e-06 21.4433 5.58476 -10.47 12.9945 -0.242716 -4.98039 89.406 5.00011 -98.2166 -5.34813 -1.25947e-06 -3.79883e-06 -67.7807 -30.3384 -73.6262 -24.3289 0.000322201 -8.65921e-06 -35.9301 -20.965 -63.7256 -22.2915 -0.000108084 -4.47941e-06 19.476 4.98957 7.54039 -2.19248 -6.46944 -1.22534e-07 -172.043 -4.31319 -37.5255 39.0811 -6.73843e-06 -1.23785e-05 0.173436 -0.480401 21.6383 40.9854 -6.48686e-06 -1.26872e-05 -13.3816 11.9033 -22.9923 11.7543 -2.30145e-07 3.05095e-06 0.539464 -1.32185 -38.1521 -2.19251 6.46944 -1.45247e-06 -176.415 14.857 149.912 -39.0811 -0.00228153 -0.0401928 0.0163623 -0.070121 11.536 -40.9854 7.72618e-06 5.99936e-06 5.0792 -3.21744 -50.2518 -11.7543 -5.6619e-06 -5.58687e-06 -0.0786495 0.0496405 -16.5718 
0 0 0 0 0 -0 -18.5843 93.4418 -6.52936 95.4908 18.691 -18.3246 15.7357 5.1072e-06 -5.51765e-07 90.4486 76.3461 -89.2833 8.98455 -0.406207 -4.3199e-07 19.5389 0.328376 2.28066 16.3773 -1.3905e-06 -6.99897e-07 7.88456 -10.6259 5.09419 6.45672 -1.25837e-06 -1.02172e-07 -38.462 -15.3162 -2.3598 12.9942 -0.242716 4.98039 -91.1829 5.14413 -92.0313 5.34809 -7.22636e-06 -6.2814e-07 -56.0825 19.1189 -27.2752 24.3286 1.87007e-05 4.90208e-06 -2.36012 -3.07612 -37.5211 22.2916 -9.88446e-07 4.63217e-06 21.6535 5.58656 -10.5689 12.9945 -0.242716 -4.98039 89.3973 4.98337 -98.0952 -5.34813 -1.25947e-06 -3.79883e-06 -67.6775 -30.339 -73.7871 -24.3289 0.000322201 -8.65921e-06 -35.7755 -20.7984 -63.7654 -22.2915 -0.000108084 -4.47941e-06 19.4046 4.99455 7.43495 -2.19248 -6.46944 -1.22534e-07 -171.762 -4.15026 -37.4956 39.0811 -6.73843e-06 -1.23785e-05 0.173191 -0.477238 21.7613 40.9854 -6.48686e-06 -1.26872e-05 -13.3413 11.9029 -23.0443 11.7543 -2.30145e-07 3.05095e-06 0.538999 -1.31955 -38.117 -2.19251 6.46944 -1.45247e-06 -176.181 14.9571 149.964 -39.0811 -0.00228153 -0.0401928 0.0174851 -0.0684314 11.7323 -40.9854 7.72618e-06 5.99936e-06 5.16163 -3.30076 -50.4124 -11.7543 -5.6619e-06 -5.58687e-06 -0.0848352 0.0533828 -16.5717 
0 0 0 0 0 -0 -18.7069 93.4177 -6.46985 95.3935 18.8945 -18.2051 15.7357 5.1072e-06 -5.51765e-07 90.3853 76.2894 -89.262 8.98455 -0.406207 -4.3199e-07 19.6528 0.296319 2.20182 16.3773 -1.3905e-06 -6.99897e-07 8.23886 -10.7048 5.08542 6.45672 -1.25837e-06 -1.02172e-07 -38.5672 -15.4518 -2.4611 12.9942 -0.242716 4.98039 -91.1879 5.17454 -92.0525 5.34809 -7.22636e-06 -6.2814e-07 -56.0802 19.0987 -27.4257 24.3286 1.87007e-05 4.90208e-06 -2.40165 -3.09037 -37.8835 22.2916 -9.88446e-07 4.63217e-06 21.6291 5.58518 -10.4944 12.9945 -0.242716 -4.98039 89.3896 4.93395 -97.9395 -5.34813 -1.25947e-06 -3.79883e-06 -67.5878 -30.3497 -73.8713 -24.3289 0.000322201 -8.65921e-06 -35.7217 -20.699 -63.827 -22.2915 -0.000108084 -4.47941e-06 19.4589 4.99719 7.37948 -2.19248 -6.46944 -1.22534e-07 -171.525 -3.97652 -37.5005 39.0811 -6.73843e-06 -1.23785e-05 0.173553 -0.475164 21.8889 40.9854 -6.48686e-06 -1.26872e-05 -13.2978 11.8322 -23.0752 11.7543 -2.30145e-07 3.05095e-06 0.539942 -1.32418 -38.1879 -2.19251 6.46944 -1.45247e-06 -175.997 15.0257 150 -39.0811 -0.00228153 -0.0401928 0.0155519 -0.0666836 11.8983 -40.9854 7.72618e-06 5.99936e-06 5.23618 -3.39233 -50.541 -11.7543 -5.6619e-06 -5.58687e-06 -0.0843492 0.0529521 -16.5717 
0 0 0 0 0 -0 -18.8119 93.3996 -6.43421 95.3394 19.1246 -18.1186 15.7357 5.1072e-06 -5.51765e-07 90.2512 76.2251 -89.1648 8.98455 -0.406207 -4.3199e-07 19.7822 0.231505 2.13883 16.3773 -1.3905e-06 -6.99897e-07 8.48839 -10.7737 5.11721 6.45672 -1.25837e-06 -1.02172e-07 -38.6068 -15.4747 -2.54459 12.9942 -0.242716 4.98039 -91.1738 5.12354 -92.0776 5.34809 -7.22636e-06 -6.2814e-07 -56.1317 19.1117 -27.6721 24.3286 1.87007e-05 4.90208e-06 -2.33276 -2.97421 -38.1379 22.2916 -9.88446e-07 4.63217e-06 21.6233 5.58456 -10.4591 12.9945 -0.242716 -4.98039 89.3809 4.92498 -97.8255 -5.34813 -1.25947e-06 -3.79883e-06 -67.5978 -30.3942 -74.0711 -24.3289 0.000322201 -8.65921e-06 -35.4826 -20.5983 -63.7312 -22.2915 -0.000108084 -4.47941e-06 19.3921 4.99685 7.38589 -2.19248 -6.46944 -1.22534e-07 -171.324 -3.72949 -37.5286 39.0811 -6.73843e-06 -1.23785e-05 0.172721 -0.46995 21.9764 40.9854 -6.48686e-06 -1.26872e-05 -13.1871 11.8126 -23.0867 11.7543 -2.30145e-07 3.05095e-06 0.541178 -1.33037 -38.2825 -2.19251 6.46944 -1.45247e-06 -175.856 15.1246 150.015 -39.0811 -0.00228153 -0.0401928 0.0158161 -0.0664301 12.045 -40.9854 7.72618e-06 5.99936e-06 5.29546 -3.49196 -50.6471 -11.7543 -5.6619e-06 -5.58687e-06 -0.0807152 0.0505042 -16.5718 
0 0 0 0 0 -0 -18.9125 93.3776 -6.40883 95.2442 19.4121 -18.0031 15.7357 5.1072e-06 -5.51765e-07 90.2086 76.1708 -89.1141 8.98455 -0.406207 -4.3199e-07 19.8911 0.213645 2.15833 16.3773 -1.3905e-06 -6.99897e-07 8.86504 -10.8774 5.19546 6.45672 -1.25837e-06 -1.02172e-07 -38.5831 -15.578 -2.64489 12.9942 -0.242716 4.98039 -91.1593 5.09181 -92.156 5.34809 -7.22636e-06 -6.2814e-07 -56.0256 19.3418 -28.0353 24.3286 1.87007e-05 4.90208e-06 -2.45821 -3.12243 -38.2467 22.2916 -9.88446e-07 4.63217e-06 21.7086 5.58481 -10.472 12.9945 -0.242716 -4.98039 89.3774 4.89104 -97.7365 -5.34813 -1.25947e-06 -3.79883e-06 -67.6123 -30.4925 -74.1825 -24.3289 0.000322201 -8.65921e-06 -35.4159 -20.5657 -63.7098 -22.2915 -0.000108084 -4.47941e-06 19.4901 4.99484 7.4286 -2.19248 -6.46944 -1.22534e-07 -171.086 -3.51447 -37.5545 39.0811 -6.73843e-06 -1.23785e-05 0.172818 -0.469589 22.0359 40.9854 -6.48686e-06 -1.26872e-05 -13.2308 11.795 -23.0086 11.7543 -2.30145e-07 3.05095e-06 0.541111 -1.33005 -38.2778 -2.19251 6.46944 -1.45247e-06 -175.703 15.183 150.051 -39.0811 -0.00228153 -0.0401928 0.0178577 -0.0669273 12.1787 -40.9854 7.72618e-06 5.99936e-06 5.34435 -3.66749 -50.7307 -11.7543 -5.6619e-06 -5.58687e-06 -0.0813865 0.0507178 -16.5718 
0 0 0 0 0 -0 -18.9971 93.3661 -6.39536 95.1622 19.6415 -17.8625 15.7357 5.1072e-06 -5.51765e-07 90.2176 76.0926 -89.114 8.98455 -0.406207 -4.3199e-07 20.0474 0.220946 2.17504 16.3773 -1.3905e-06 -6.99897e-07 9.37765 -10.9807 5.22476 6.45672 -1.25837e-06 -1.02172e-07 -38.649 -15.7462 -2.6079 12.9942 -0.242716 4.98039 -91.1396 5.02909 -92.2144 5.34809 -7.22636e-06 -6.2814e-07 -55.9384 19.5357 -28.5054 24.3286 1.87007e-05 4.90208e-06 -2.32913 -2.9612 -38.2116 22.2916 -9.88446e-07 4.63217e-06 21.6708 5.58356 -10.4043 12.9945 -0.242716 -4.98039 89.3725 4.85119 -97.6204 -5.34813 -1.25947e-06 -3.79883e-06 -67.6938 -30.531 -74.3483 -24.3289 0.000322201 -8.65921e-06 -35.3738 -20.5563 -63.6832 -22.2915 -0.000108084 -4.47941e-06 19.5647 4.99404 7.44534 -2.19248 -6.46944 -1.22534e-07 -170.911 -3.35411 -37.5358 39.0811 -6.73843e-06 -1.23785e-05 0.17107 -0.464224 22.1012 40.9854 -6.48686e-06 -1.26872e-05 -13.1359 11.8789 -22.9475 11.7543 -2.30145e-07 3.05095e-06 0.543172 -1.34045 -38.4368 -2.19251 6.46944 -1.45247e-06 -175.578 15.2547 150.175 -39.0811 -0.00228153 -0.0401928 0.0173408 -0.0677798 12.1865 -40.9854 7.72618e-06 5.99936e-06 5.39049 -3.78639 -50.7519 -11.7543 -5.6619e-06 -5.58687e-06 -0.0826739 0.0513537 -16.5719 
